<svg width="148" height="14" viewBox="0 0 148 14" fill="none" xmlns="http://www.w3.org/2000/svg">
<path d="M6.04 13.288C4.948 13.288 3.922 13.174 2.962 12.946C2.002 12.706 1.21 12.394 0.586 12.01L2.224 8.878C3.58 9.658 4.996 10.048 6.472 10.048C7.012 10.048 7.426 9.982 7.714 9.85C8.002 9.718 8.146 9.538 8.146 9.31C8.146 9.094 7.996 8.92 7.696 8.788C7.408 8.656 6.946 8.512 6.31 8.356C5.47 8.14 4.774 7.924 4.222 7.708C3.67 7.48 3.184 7.138 2.764 6.682C2.356 6.214 2.152 5.602 2.152 4.846C2.152 3.898 2.404 3.07 2.908 2.362C3.424 1.642 4.162 1.09 5.122 0.705999C6.082 0.31 7.216 0.112 8.524 0.112C9.46 0.112 10.33 0.207999 11.134 0.399999C11.95 0.579999 12.652 0.843999 13.24 1.192L11.71 4.288C11.218 3.976 10.672 3.742 10.072 3.586C9.484 3.43 8.878 3.352 8.254 3.352C7.666 3.352 7.21 3.436 6.886 3.604C6.562 3.772 6.4 3.97 6.4 4.198C6.4 4.426 6.544 4.606 6.832 4.738C7.132 4.87 7.618 5.014 8.29 5.17C9.106 5.362 9.79 5.566 10.342 5.782C10.906 5.998 11.392 6.334 11.8 6.79C12.208 7.246 12.412 7.846 12.412 8.59C12.412 9.526 12.154 10.348 11.638 11.056C11.122 11.764 10.384 12.316 9.424 12.712C8.464 13.096 7.336 13.288 6.04 13.288ZM35.8881 0.399999L29.3361 13H24.7821L24.0621 6.358L20.6061 13H16.0521L14.5401 0.399999H18.7341L19.5441 7.582L23.2881 0.399999H27.1941L27.9141 7.69L31.7121 0.399999H35.8881ZM36.8314 0.399999H41.0794L38.5594 13H34.3114L36.8314 0.399999ZM45.1944 3.694H41.5044L42.1704 0.399999H53.7984L53.1324 3.694H49.4424L47.5884 13H43.3404L45.1944 3.694ZM59.3699 13.288C58.0859 13.288 56.9519 13.054 55.9679 12.586C54.9959 12.106 54.2399 11.44 53.6999 10.588C53.1719 9.736 52.9079 8.758 52.9079 7.654C52.9079 6.19 53.2439 4.888 53.9159 3.748C54.5999 2.608 55.5419 1.72 56.7419 1.084C57.9539 0.435999 59.3279 0.112 60.8639 0.112C62.0759 0.112 63.1499 0.334 64.0859 0.778C65.0219 1.21 65.7179 1.828 66.1739 2.632L63.1139 5.026C62.5499 4.042 61.7099 3.55 60.5939 3.55C59.9339 3.55 59.3459 3.712 58.8299 4.036C58.3139 4.36 57.9119 4.816 57.6239 5.404C57.3359 5.98 57.1919 6.64 57.1919 7.384C57.1919 8.128 57.4259 8.728 57.8939 9.184C58.3739 9.628 59.0039 9.85 59.7839 9.85C60.8519 9.85 61.7879 9.364 62.5919 8.392L65.0939 10.786C64.3619 11.686 63.5279 12.328 62.5919 12.712C61.6679 13.096 60.5939 13.288 59.3699 13.288ZM80.5405 0.399999L78.0205 13H73.7725L74.7085 8.356H70.7845L69.8485 13H65.6005L68.1205 0.399999H72.3685L71.4685 4.864H75.3925L76.2925 0.399999H80.5405ZM91.5333 6.52C92.0733 6.76 92.4873 7.09 92.7753 7.51C93.0753 7.918 93.2253 8.41 93.2253 8.986C93.2253 10.318 92.6733 11.32 91.5693 11.992C90.4773 12.664 89.0673 13 87.3393 13H80.0673L82.5873 0.399999H89.2653C90.7413 0.399999 91.8633 0.663999 92.6313 1.192C93.3993 1.708 93.7833 2.446 93.7833 3.406C93.7833 4.114 93.5853 4.738 93.1893 5.278C92.7933 5.806 92.2413 6.22 91.5333 6.52ZM86.1693 3.37L85.7913 5.242H87.9513C88.8873 5.242 89.3553 4.876 89.3553 4.144C89.3553 3.892 89.2593 3.7 89.0673 3.568C88.8753 3.436 88.5993 3.37 88.2393 3.37H86.1693ZM87.5733 10.03C88.0053 10.03 88.3533 9.934 88.6173 9.742C88.8813 9.538 89.0133 9.25 89.0133 8.878C89.0133 8.614 88.9113 8.41 88.7073 8.266C88.5153 8.122 88.2693 8.05 87.9693 8.05H85.2333L84.8373 10.03H87.5733ZM96.5091 0.399999H100.757L98.9031 9.706H104.591L103.925 13H93.9891L96.5091 0.399999ZM114.454 10.804H109.648L108.388 13H103.906L111.934 0.399999H116.11L119.098 13H114.868L114.454 10.804ZM113.86 7.744L113.248 4.522L111.394 7.744H113.86ZM122.296 0.399999H127.984C129.304 0.399999 130.444 0.615999 131.404 1.048C132.376 1.48 133.12 2.098 133.636 2.902C134.152 3.706 134.41 4.654 134.41 5.746C134.41 7.198 134.074 8.476 133.402 9.58C132.73 10.672 131.794 11.518 130.594 12.118C129.406 12.706 128.05 13 126.526 13H119.776L122.296 0.399999ZM126.67 9.688C127.762 9.688 128.608 9.346 129.208 8.662C129.82 7.966 130.126 7.078 130.126 5.998C130.126 5.266 129.898 4.702 129.442 4.306C128.998 3.91 128.35 3.712 127.498 3.712H125.878L124.69 9.688H126.67ZM140.695 3.604L140.407 5.08H145.735L145.123 8.14H139.777L139.453 9.796H145.771L145.123 13H134.647L137.167 0.399999H147.409L146.761 3.604H140.695Z" fill="#121213"/>
</svg>
